<?xml version="1.0" standalone="no"?>
<!DOCTYPE svg PUBLIC "-//W3C//DTD SVG 1.1//EN" "http://www.w3.org/Graphics/SVG/1.1/DTD/svg11.dtd" >
<svg xmlns="http://www.w3.org/2000/svg">
<metadata></metadata>
<defs>
<font id="tr_avalon_plain" horiz-adv-x="1137" >
<font-face units-per-em="2048" ascent="1638" descent="-410" />
<missing-glyph horiz-adv-x="567" />
<glyph horiz-adv-x="2048" />
<glyph horiz-adv-x="2048" />
<glyph unicode="&#xd;" horiz-adv-x="567" />
<glyph unicode=" "  horiz-adv-x="567" />
<glyph unicode="&#x09;" horiz-adv-x="567" />
<glyph unicode="&#xa0;" horiz-adv-x="567" />
<glyph unicode="!" horiz-adv-x="604" d="M227 0v260h154v-260h-154zM227 395v1121h154v-1121h-154z" />
<glyph unicode="&#x22;" horiz-adv-x="633" d="M152 1053v463h108v-463h-108zM381 1053v463h102v-463h-102z" />
<glyph unicode="#" d="M12 512l31 121h309l72 252h-307l35 119h309l151 512h84l-147 -512h182l154 512h84l-154 -512h313l-36 -119h-308l-75 -252h307l-33 -121h-311l-148 -512h-88l152 512h-185l-151 -512h-88l151 512h-303zM436 633h185l75 252h-184z" />
<glyph unicode="$" d="M156 469h143q0 -276 272 -276q144 0 227 133q38 61 38 135q0 85 -43 151q-41 63 -147 102l-208 77q-233 86 -233 358q0 158 134 268q66 54 165 72v168h133v-168q60 -6 120 -35q124 -61 182 -188q30 -68 30 -150h-146q-19 135 -95 196q-56 44 -153 44q-132 0 -193 -115 q-30 -57 -30 -113q0 -91 66 -156q60 -58 153 -79q179 -41 286 -137q126 -112 126 -281q0 -113 -55 -215q-56 -106 -151 -161q-69 -40 -140 -40v-168h-133v168q-159 28 -253.5 138.5t-94.5 271.5z" />
<glyph unicode="%" horiz-adv-x="1587" d="M25 1188q0 58 19 112q41 122 124 176q92 60 213 60q207 0 307 -170q47 -81 47 -182q0 -100 -47 -181q-72 -123 -213 -166q-45 -14 -94 -14q-144 0 -250 109.5t-106 255.5zM172 1188q0 -137 107 -193q49 -26 102 -26q84 0 149 60q62 57 62 167q0 91 -61.5 142t-145.5 51 q-123 0 -182 -90q-31 -46 -31 -111zM373 0l680 1516h147l-680 -1516h-147zM823 319q0 55 33 140q54 138 184 202q65 31 140 31q77 0 147 -30q132 -57 184 -196q25 -70 25 -147q0 -195 -180 -299q-84 -49 -180 -49q-105 0 -192 61q-84 58 -129 155q-32 70 -32 132zM973 340 q0 -100 60.5 -159.5t150.5 -59.5q87 0 150 60t63 167q0 89 -66 143t-151 54q-89 0 -148 -58t-59 -147z" />
<glyph unicode="&#x26;" horiz-adv-x="1552" d="M117 432q0 191 164 346q75 71 176 119q-113 100 -151 228q-13 41 -13 79q0 45 15 88q35 105 118 168q100 76 229 76q199 0 316 -174q53 -80 53 -174q0 -121 -92 -219q-82 -87 -205 -129l289 -285l217 428h172l-281 -530l379 -377l-102 -105l-348 336q-67 -147 -191 -239 q-132 -97 -287 -97q-120 0 -226 65q-102 62 -165 168q-67 112 -67 228zM260 428q0 -89 76 -197q107 -114 239 -114q225 0 361 307l-361 352q-143 -58 -229 -150t-86 -198zM449 1208q0 -116 172 -260q251 86 251 248q0 85 -61 141t-147 56q-90 0 -150 -47q-65 -51 -65 -138z " />
<glyph unicode="'" horiz-adv-x="721" d="M188 1120l181 396h151l-180 -396h-152z" />
<glyph unicode="(" horiz-adv-x="756" d="M117 655q0 115 47 263q92 291 302 472q104 89 222 126v-132q-147 -85 -254 -236q-104 -147 -143 -316q-19 -83 -19 -173q0 -317 174 -565q92 -132 242 -219v-135q-268 101 -424 376q-147 259 -147 539z" />
<glyph unicode=")" horiz-adv-x="756" d="M72 -125q282 162 375 499q40 147 40 285q0 172 -73 334q-116 258 -342 391v132q237 -72 404 -338t167 -523q0 -130 -37 -271q-58 -220 -191 -388q-144 -182 -343 -256v135z" />
<glyph unicode="*" horiz-adv-x="872" d="M131 1192v104h213l-113 189l101 55l104 -184l113 184l94 -55l-111 -189h207v-104h-207l111 -180l-94 -56l-113 185l-104 -185l-101 56l113 180h-213z" />
<glyph unicode="+" horiz-adv-x="1239" d="M104 545v155h441v437h155v-437h441v-155h-441v-445h-155v445h-441z" />
<glyph unicode="," horiz-adv-x="567" d="M188 -135l181 395h151l-184 -395h-148z" />
<glyph unicode="-" horiz-adv-x="680" d="M63 549v135h558v-135h-558z" />
<glyph unicode="." horiz-adv-x="567" d="M209 0v276h164v-276h-164z" />
<glyph unicode="/" horiz-adv-x="897" d="M84 -260l592 1776h139l-600 -1776h-131z" />
<glyph unicode="0" d="M63 487v525q0 316 259 463q116 65 241 65q221 0 366.5 -153.5t145.5 -382.5v-521q0 -115 -46 -216q-86 -188 -279 -261q-93 -35 -187 -35q-139 0 -254.5 69.5t-181.5 192.5q-64 120 -64 254zM213 528q0 -251 165 -356q80 -51 181 -51q207 0 311 158q54 82 54 200v502 q0 193 -97 304q-95 108 -264 108q-88 0 -177 -47q-173 -91 -173 -377v-441z" />
<glyph unicode="1" d="M319 1380v136h408v-1516h-152v1380h-256z" />
<glyph unicode="2" d="M68 0v135l675 658q142 138 142 286q0 173 -154 267q-77 47 -147 47q-168 0 -262.5 -100t-94.5 -269h-151q0 329 252 458q113 58 239 58q121 0 227.5 -61.5t171.5 -164.5q66 -106 66 -235q0 -227 -213 -428l-543 -512h756v-139h-964z" />
<glyph unicode="3" d="M63 475h156q28 -229 177 -314q70 -40 145 -40q186 0 291 163q49 77 49 169q0 163 -114 255q-111 89 -288 89h-26v131q331 0 331 231q0 139 -118 205q-54 29 -117 29q-189 0 -234 -252h-147q0 123 57 218q109 181 320 181q103 0 193 -53q194 -114 194 -332 q0 -176 -148 -283q162 -90 219 -239q29 -77 29 -158q0 -131 -63 -246t-173.5 -184.5t-242.5 -69.5q-193 0 -332 131q-74 69 -114 158q-44 98 -44 211z" />
<glyph unicode="4" d="M29 281v135l727 1100h188v-1100h135v-135h-135v-281h-151v281h-764zM201 416h592v893z" />
<glyph unicode="5" d="M47 475h158q9 -105 73 -194t161 -136q64 -32 128 -32q94 0 181 58q176 117 176 329q0 214 -171 330q-81 55 -178 55q-191 0 -319 -158l-121 45l137 744h684v-140h-561l-76 -415q128 67 265 67q206 0 353 -163q142 -158 142 -365q0 -132 -64.5 -252.5t-173.5 -195.5 q-112 -77 -245 -77q-301 0 -459 223q-90 127 -90 277z" />
<glyph unicode="6" d="M51 500q-4 84 31 189q32 96 90 183l432 644h176l-356 -529q66 33 164 33q136 0 252 -79q108 -74 175 -199q68 -129 68 -273q0 -109 -76 -244q-141 -250 -448 -250q-286 0 -430 266q-71 130 -78 259zM205 512q0 -125 70 -231q73 -112 189 -146q48 -14 107 -14q94 0 179 54 q81 51 130 136q52 89 52 189q0 114 -62 208.5t-165 141.5q-71 31 -146 31q-169 0 -278 -138q-76 -96 -76 -231z" />
<glyph unicode="7" d="M131 1380v136h877v-136l-623 -1380h-162l625 1380h-717z" />
<glyph unicode="8" d="M88 440q0 81 31 167q62 171 221 241q-81 37 -130 125q-46 82 -46 176q0 153 104 267q81 88 210 115q43 9 93 9q174 0 289 -120q79 -83 102 -196q7 -35 7 -75q0 -200 -176 -305q163 -74 229 -240q31 -78 31 -147q0 -129 -65 -241t-177.5 -178.5t-247.5 -66.5 q-131 0 -242 66t-173 181q-60 108 -60 222zM236 436q0 -83 46 -157.5t120 -116.5q79 -45 161 -45t168 48q166 93 166 279q0 185 -171 275q-79 41 -167 41q-145 0 -231 -96q-92 -103 -92 -228zM315 1149q0 -109 84 -178q78 -64 176 -64q88 0 170 76q74 69 74 166 q0 107 -74 177.5t-182 70.5q-93 0 -173 -70q-75 -66 -75 -178z" />
<glyph unicode="9" d="M47 1028q0 129 77 255q33 55 89 110q149 147 358 147q215 0 361.5 -163.5t146.5 -381.5q0 -175 -96 -319l-451 -676h-180l361 524q-97 -41 -181 -41q-135 0 -247 83q-109 80 -171 204q-67 133 -67 258zM205 1012q0 -96 52 -186q48 -84 130 -135q87 -54 180 -54 q209 0 313 169q52 84 52 202q0 167 -102 275q-105 110 -259 110q-90 0 -186 -50q-127 -96 -167 -239q-13 -46 -13 -92z" />
<glyph unicode=":" horiz-adv-x="567" d="M209 0v260h151v-260h-151zM209 788v256h151v-256h-151z" />
<glyph unicode=";" horiz-adv-x="567" d="M84 -135l180 395h152l-180 -395h-152zM264 788v256h152v-256h-152z" />
<glyph unicode="&#x3c;" horiz-adv-x="1239" d="M100 553v131l1045 475v-151l-848 -392l848 -393v-147z" />
<glyph unicode="=" horiz-adv-x="1239" d="M104 340v156h1033v-156h-1033zM104 739v154h1033v-154h-1033z" />
<glyph unicode="&#x3e;" horiz-adv-x="1239" d="M104 76v147l848 393l-848 392v147l1045 -475v-127z" />
<glyph unicode="?" horiz-adv-x="1212" d="M131 1040q0 301 234 435q114 65 219 65q97 0 187 -31q183 -63 263 -236q41 -89 41 -194q0 -102 -48 -177q-45 -70 -146 -174q-94 -97 -129 -149q-60 -91 -60 -184h-151q0 126 53 224q44 81 148 180q100 96 126 130q56 77 56 167q0 137 -108 223q-98 78 -241 78 q-70 0 -143 -50q-156 -107 -156 -307h-145zM541 0v260h151v-260h-151z" />
<glyph unicode="@" horiz-adv-x="1776" d="M143 739q0 215 97.5 395.5t278.5 291.5q90 55 185 85q70 22 193 29l18 1l23 1q46 2 115 -8q51 -8 115 -27q260 -79 386 -310q38 -69 58 -137q15 -53 20 -149l2 -41q5 -101 -43 -217q-87 -214 -273 -322q-85 -50 -163 -50q-118 0 -178 110q-110 -102 -246 -102 q-85 0 -162 51q-92 61 -121 199q-8 38 -8 82q0 139 70 282q69 140 178 229q114 93 256 93q195 0 240 -138l33 97h139l-236 -729q0 -54 64 -60q104 0 212 123q53 60 92 155q44 105 44 208q0 219 -159 383q-173 176 -445 176h-4q-288 0 -484 -214q-188 -205 -188 -458 q0 -313 206 -507q140 -134 337 -172q63 -13 125 -13q157 0 309 75q148 73 252 209h118q-141 -246 -411 -337q-126 -43 -256 -43q-305 0 -533 200q-176 154 -236 396q-20 80 -20 163zM596 612q0 -145 104 -180q30 -10 56 -10q94 0 181 105q65 79 108 190q47 124 47 223 q0 160 -131 160q-120 0 -230 -119q-38 -33 -85 -150q-50 -125 -50 -219z" />
<glyph unicode="A" horiz-adv-x="1516" d="M25 0l651 1516h168l651 -1516h-164l-223 508h-700l-220 -508h-163zM465 647h588l-293 692z" />
<glyph unicode="B" horiz-adv-x="1176" d="M156 0v1516h393q292 0 419 -185q64 -93 64 -190q0 -208 -160 -332q244 -118 244 -401q0 -162 -128 -280q-137 -128 -359 -128h-473zM307 135h277q377 0 377 305q0 156 -131 231q-104 60 -271 60h-252v-596zM307 868h246q142 0 230 60q102 70 102 205q0 119 -99 184 q-90 59 -231 59h-248v-508z" />
<glyph unicode="C" horiz-adv-x="1665" d="M90 762q0 48 6 102q34 303 268 493q224 183 517 183q96 0 201 -26q207 -52 356 -204q77 -79 135 -182h-168q-129 174 -329 233q-95 28 -187 28q-194 0 -354 -101.5t-237 -276.5q-54 -121 -54 -259q0 -269 199 -454q94 -88 208 -134.5t234 -46.5q143 0 289 73 q140 70 237 205h168q-121 -210 -308 -317q-182 -103 -386 -103q-316 0 -550 217q-245 226 -245 570z" />
<glyph unicode="D" horiz-adv-x="1524" d="M156 0v1516h411q417 0 650 -227q108 -106 163.5 -246.5t55.5 -299.5q0 -213 -107 -385t-298 -267q-181 -91 -384 -91h-491zM307 139h234q312 0 510 143q156 113 214 318q19 69 19 143q0 272 -175 446q-194 191 -542 191h-260v-1241z" />
<glyph unicode="E" horiz-adv-x="1096" d="M156 0v1516h827v-140h-676v-545h654v-135h-654v-561h676v-135h-827z" />
<glyph unicode="F" horiz-adv-x="991" d="M156 0v1516h768v-140h-617v-545h592v-135h-592v-696h-151z" />
<glyph unicode="G" horiz-adv-x="1784" d="M92 756q0 351 253 575q167 148 395 195q70 14 141 14q166 0 326 -60t278 -180q79 -81 127 -188h-176q-80 137 -237 213q-146 72 -314 72q-138 0 -268 -61q-233 -109 -330 -351q-47 -116 -47 -229q0 -279 211 -460q96 -83 211 -129q125 -50 223 -50q282 0 489 193 q107 100 146 253h-844v137h1028q-59 -465 -441 -643q-176 -82 -374 -82q-149 0 -301 63q-298 123 -431 417q-65 143 -65 301z" />
<glyph unicode="H" horiz-adv-x="1401" d="M156 0v1516h151v-664h789v664h147v-1516h-147v713h-789v-713h-151z" />
<glyph unicode="I" horiz-adv-x="465" d="M156 0v1516h151v-1516h-151z" />
<glyph unicode="J" horiz-adv-x="987" d="M25 360h147q12 -111 90 -177q54 -45 126 -61q20 -5 44 -5q142 0 213 126q35 62 35 152v1121h151v-1096q0 -288 -199 -396q-90 -49 -196 -49q-230 0 -351 182q-60 89 -60 203z" />
<glyph unicode="K" horiz-adv-x="1212" d="M152 0v1511h151v-870l701 870h192l-596 -739l592 -772h-188l-504 651l-197 -243v-408h-151z" />
<glyph unicode="L" horiz-adv-x="948" d="M156 0v1516h151v-1381l629 4v-139h-780z" />
<glyph unicode="M" horiz-adv-x="1884" d="M156 0v1516h235l553 -1293l551 1293h234v-1516h-152v1348l-569 -1348h-131l-570 1348v-1348h-151z" />
<glyph unicode="N" horiz-adv-x="1516" d="M156 0v1516h204l848 -1256v1256h152v-1516h-152l-901 1331v-1331h-151z" />
<glyph unicode="O" horiz-adv-x="1780" d="M92 772q0 198 110 377q105 173 280 279q183 112 403 112q338 0 571 -229q236 -233 236 -572q0 -211 -121 -395q-116 -177 -309 -276q-187 -97 -390 -97q-131 0 -283 63q-230 95 -363.5 293t-133.5 445zM244 780q0 -165 63 -299q110 -235 364 -321q113 -39 214 -39 q234 0 424 147q96 75 159 195q72 137 72 280q0 289 -201 476q-193 178 -450 178q-265 0 -455 -193.5t-190 -423.5z" />
<glyph unicode="P" horiz-adv-x="1212" d="M156 0v1516h397q177 0 307 -38q204 -59 275 -249q19 -52 24 -142l2 -40v-18q0 -107 -66 -207q-141 -210 -458 -210h-330v-612h-151zM307 748h314q201 0 297 94q90 88 90 245q0 155 -124 226q-116 67 -313 67h-264v-632z" />
<glyph unicode="Q" horiz-adv-x="1784" d="M88 752q0 76 21 159q77 305 304 473q150 111 355 145q65 11 129 11q319 0 545 -181q241 -193 274 -550v-78q0 -336 -252 -543q95 -75 193 -75l39 4v-142q-215 0 -340 129q-235 -137 -467 -137q-325 0 -563 242q-115 116 -178 261q-60 138 -60 282zM244 748q0 -39 7 -86 q3 -19 17 -91q159 54 324 54q207 0 401 -83q97 -42 190 -104q97 -65 177 -145q209 176 209 446q0 71 -13 138q-45 233 -219 374q-126 102 -311 136q-59 10 -123 10q-261 0 -455 -183q-204 -191 -204 -466zM328 444q102 -165 253 -245q156 -82 318 -82q195 0 338 92 q-147 143 -320 210q-176 68 -346 68q-130 0 -243 -43z" />
<glyph unicode="R" horiz-adv-x="1243" d="M156 0v1516h407q350 0 498 -158q103 -112 123 -314q0 -273 -218 -411q-103 -66 -231 -66l428 -567h-190l-516 688h127q282 0 393 156q55 77 55 184q0 216 -217 307q-98 41 -203 41h-305v-1376h-151z" />
<glyph unicode="S" horiz-adv-x="1020" d="M43 424h166q0 -85 45.5 -158.5t122.5 -109.5q73 -35 151 -35q118 0 206.5 86.5t88.5 204.5q0 94 -47 168q-46 71 -168 113l-244 83q-120 41 -195 120q-76 79 -76 209q0 12 1 25l1 18l1 23q3 80 40 151q70 135 229 192q75 26 151 26q246 0 367 -209q53 -92 53 -178v-20 h-152q-30 238 -264 260q-150 0 -231 -115q-35 -49 -41 -115q0 -140 89 -207q55 -42 220 -89q176 -51 260 -115q108 -82 148 -236q8 -61 8 -96q0 -170 -114 -301q-126 -144 -339 -144t-345 130.5t-132 318.5z" />
<glyph unicode="T" horiz-adv-x="872" d="M16 1380v136h844v-136h-344v-1380h-151v1380h-349z" />
<glyph unicode="U" horiz-adv-x="1339" d="M156 504v1012h151v-1004q0 -247 188 -350q90 -49 177 -49q213 0 314 196q50 98 50 236v971h152v-967q0 -364 -263 -509q-119 -65 -253 -65q-210 0 -356 138q-160 150 -160 391z" />
<glyph unicode="V" horiz-adv-x="1436" d="M20 1516h168l529 -1328l534 1328h168l-631 -1516h-145z" />
<glyph unicode="W" horiz-adv-x="1968" d="M20 1516h156l373 -1319l362 1319h146l362 -1319l373 1319h156l-432 -1516h-199l-334 1239l-336 -1239h-194z" />
<glyph unicode="X" horiz-adv-x="1247" d="M16 0l516 776l-485 740h176l402 -609l399 609h176l-487 -740l520 -776h-176l-432 647l-428 -647h-181z" />
<glyph unicode="Y" horiz-adv-x="1212" d="M4 1516h164l440 -852l436 852h168l-532 -1008v-508h-148v508z" />
<glyph unicode="Z" horiz-adv-x="983" d="M37 0v135l743 1245h-725v136h893v-136l-739 -1245h764v-135h-936z" />
<glyph unicode="[" horiz-adv-x="721" d="M227 268v672q0 440 416 576v-156q-121 -41 -195 -155q-71 -109 -71 -240v-666q0 -183 100 -290q42 -45 94 -74l70 -39v-156q-102 19 -200 100q-90 73 -147 171q-67 114 -67 257z" />
<glyph unicode="\" horiz-adv-x="1239" d="M172 1516h147l633 -1516h-141z" />
<glyph unicode="]" horiz-adv-x="721" d="M76 1360v156q225 -72 325 -236q91 -149 91 -340v-672q0 -275 -229 -441q-96 -69 -183 -87v156l69 39q116 65 166 189q29 73 29 175v666q0 208 -149 327q-63 49 -119 68z" />
<glyph unicode="^" horiz-adv-x="1239" d="M37 373l522 1143h117l528 -1143h-129l-459 987l-448 -987h-131z" />
<glyph unicode="_" horiz-adv-x="1024" d="M0 -135h1024v-121h-1024v121z" />
<glyph unicode="`" horiz-adv-x="776" d="M152 1473l63 122l410 -219l-70 -121z" />
<glyph unicode="a" horiz-adv-x="1401" d="M84 553q0 167 83 306t230 217q138 73 287 73q304 0 440 -246v217h148v-1120h-148v213q-64 -116 -193 -180q-118 -58 -259 -58q-145 0 -288 76.5t-221.5 208.5t-78.5 293zM240 588q0 -281 221 -408q102 -59 211 -59q189 0 323 134q129 129 129 298q0 186 -124 310 q-136 136 -308 136q-258 0 -393 -224q-59 -97 -59 -187z" />
<glyph unicode="b" horiz-adv-x="1397" d="M129 0v1516h156v-609q56 101 170 168q126 74 254 74q253 0 429 -172q80 -79 126 -178q49 -105 49 -195q0 -362 -266 -541q-137 -92 -304 -92q-334 0 -471 226v-197h-143zM272 596q0 -280 201 -407q106 -68 266 -68q113 0 211 62q95 59 152 162.5t57 238.5q0 172 -139 296 q-134 119 -307 119q-103 0 -204 -51.5t-165 -134.5q-72 -92 -72 -217z" />
<glyph unicode="c" horiz-adv-x="1323" d="M84 555l3 4l1 4q0 162 79 297t221 212t276 77q192 0 344 -87q163 -94 239 -278h-172q-125 215 -411 215q-115 0 -223 -69q-93 -59 -147 -158t-54 -209q0 -252 215 -379q107 -63 225 -63q120 0 226 53q111 56 173 154h168q-89 -176 -233 -267q-135 -86 -326 -86 q-243 0 -422 169q-182 171 -182 411z" />
<glyph unicode="d" horiz-adv-x="1405" d="M86 565v25q0 11 2 22q28 318 310 466q135 71 261 71q318 0 465 -225v592h152v-1516h-143v213q-157 -238 -465 -238q-127 0 -274 82q-143 79 -224 212q-84 135 -84 296zM240 563q-1 -8 -1 -17q0 -89 58 -192q58 -104 160 -168.5t223 -64.5q150 0 273 92.5t163 236.5 q17 60 17 130q0 97 -59 195q-54 91 -138 151q-103 73 -256 73q-60 0 -128 -20q-257 -75 -308 -354z" />
<glyph unicode="e" horiz-adv-x="1331" d="M88 567q0 258 186 425q126 113 290 147q52 10 104 10q227 0 397 -154q186 -170 186 -458v-29h-1011q0 -83 48 -168q81 -143 240 -195q71 -24 136 -24q121 0 237 68q124 72 164 180h156q-35 -98 -98 -175q-118 -145 -299 -195q-87 -24 -169 -24q-137 0 -277 79.5 t-216 216.5q-74 133 -74 296zM240 643h864q-40 208 -233 311q-94 50 -199 50q-122 0 -222 -57q-103 -58 -158 -164q-45 -85 -52 -140z" />
<glyph unicode="f" horiz-adv-x="643" d="M37 981v135h172q0 262 193 351q97 44 239 44v-139q-285 0 -285 -239l4 -17h281v-135h-281v-981h-151v981h-172z" />
<glyph unicode="g" horiz-adv-x="1380" d="M88 563q0 164 76 297q77 138 218 215q135 74 261 74q210 0 357 -117q71 -57 108 -133v225h143v-1028q0 -165 -77 -286q-152 -238 -474 -238q-321 0 -490 230q-56 76 -81 173h147q71 -170 249 -235q81 -29 167 -29q244 0 359 180q57 89 57 209v123q-133 -248 -436 -248 q-173 0 -315.5 91.5t-216.5 248.5q-52 110 -52 248zM240 592q0 -210 126 -342q123 -129 302 -129q108 0 208 55t161 146q71 105 71 258q0 164 -129 288q-137 131 -324 131q-118 0 -207 -54q-144 -88 -190 -255q-18 -66 -18 -98z" />
<glyph unicode="h" horiz-adv-x="1247" d="M131 0v1516h154v-555q114 184 344 184q194 0 341 -135q154 -141 154 -363v-647h-151v647q0 166 -105 260q-99 88 -243 88q-150 0 -245 -91t-95 -240v-664h-154z" />
<glyph unicode="i" horiz-adv-x="408" d="M129 0v1120h152v-1120h-152zM129 1255v261h152v-261h-152z" />
<glyph unicode="j" horiz-adv-x="416" d="M-92 -244q132 0 185 92q42 72 42 215v1057h154v-1104q0 -145 -82 -270q-90 -137 -299 -137v147zM135 1255v261h154v-261h-154z" />
<glyph unicode="k" horiz-adv-x="1028" d="M129 0v1516h152v-1063l516 667h190l-432 -561l465 -559h-197l-362 444l-180 -231v-213h-152z" />
<glyph unicode="l" horiz-adv-x="408" d="M129 0v1516h152v-1516h-152z" />
<glyph unicode="m" horiz-adv-x="1921" d="M129 0v1120h143v-151q86 176 299 176q120 0 225.5 -56.5t168.5 -156.5q122 209 358 209q120 0 228.5 -57.5t173.5 -156.5q67 -102 67 -227v-700h-147v676q0 203 -163 283q-75 36 -155 36q-126 0 -206.5 -78.5t-80.5 -203.5v-713h-155v688q0 189 -165 270q-76 37 -157 37 q-166 0 -242 -136q-40 -70 -40 -167v-692h-152z" />
<glyph unicode="n" horiz-adv-x="1247" d="M129 0v1120h143v-168q72 120 215 169q70 24 142 24q148 0 270.5 -80t180.5 -215q40 -96 40 -217v-633h-147v633q0 228 -180 321q-81 41 -172 41q-196 0 -292 -156q-48 -79 -48 -188v-651h-152z" />
<glyph unicode="o" horiz-adv-x="1339" d="M88 580q0 224 172 394.5t432 170.5q133 0 264 -77q121 -72 204 -187q93 -129 100 -269l1 -19l1 -24v-20q0 -104 -46 -211q-96 -223 -319 -317q-107 -46 -225 -46q-227 0 -398 157q-186 171 -186 448zM236 571q0 -272 220 -393q111 -61 220 -61q230 0 363 209 q65 103 65 245q0 110 -58.5 207.5t-157.5 157.5q-102 63 -212 63q-112 0 -213.5 -58.5t-162.5 -153.5q-64 -99 -64 -216z" />
<glyph unicode="p" horiz-adv-x="1397" d="M135 -391v1515h146v-200q71 106 185 165.5t243 59.5q241 0 421 -157q85 -74 137 -178q54 -108 54 -226q0 -169 -75 -307q-78 -141 -220.5 -223.5t-300.5 -82.5q-140 0 -254 58q-126 64 -182 182v-606h-154zM276 553q0 -98 50 -199q81 -162 263 -214q64 -19 138 -19 q131 0 239.5 72t161.5 192q35 82 35 174q0 252 -220 380q-103 60 -230 60q-91 0 -180 -40q-118 -53 -187.5 -164.5t-69.5 -241.5z" />
<glyph unicode="q" horiz-adv-x="1397" d="M88 563q0 112 49 230q85 205 292 300q97 44 218 56q97 0 194 -26q207 -56 287 -203v204h144v-1515h-152v604q-58 -141 -255 -207q-93 -31 -193 -31q-141 0 -291 85q-137 78 -215 211.5t-78 291.5zM236 553l3 -2q2 -247 221 -372q101 -58 212 -58q263 0 394 208 q62 99 62 220q0 193 -116 317q-126 133 -332 133q-253 0 -383 -222q-61 -105 -61 -224z" />
<glyph unicode="r" horiz-adv-x="616" d="M131 0v1124h141v-168q94 193 328 193v-154q-168 0 -271 -149q-48 -70 -48 -154v-692h-150z" />
<glyph unicode="s" horiz-adv-x="797" d="M37 328l151 4q0 -94 66 -155q67 -64 141 -64t136 61q57 56 57 133q0 155 -185 205q-126 34 -219 97q-99 66 -104 184l-2 45v12q0 63 29 121q56 111 177 154q57 20 107 20q122 0 215 -73q72 -58 99 -159q8 -33 8 -69h-154q0 79 -49.5 117t-118.5 38q-58 0 -113 -40 t-55 -115l13 -56q13 -56 104 -92l181 -71q94 -37 155 -100q64 -68 64 -170q0 -10 -1 -21l-4 -62q-9 -143 -123 -223q-106 -74 -225 -74q-210 0 -305 174q-45 82 -45 179z" />
<glyph unicode="t" horiz-adv-x="696" d="M25 983v137h235v396h152v-396h260v-137h-260v-983h-152v983h-235z" />
<glyph unicode="u" horiz-adv-x="1243" d="M129 453v667h152v-645q0 -226 172 -318q80 -44 163 -44q201 0 300 181q49 89 49 214v612h151v-1120h-139v176q-52 -100 -150.5 -152.5t-218.5 -52.5q-270 0 -409 222q-70 110 -70 260z" />
<glyph unicode="v" d="M16 1120h164l387 -927l389 927h164l-477 -1120h-156z" />
<glyph unicode="w" horiz-adv-x="1700" d="M16 1120h160l352 -940l260 803h123l260 -799l357 936h160l-424 -1120h-177l-239 743l-236 -743h-172z" />
<glyph unicode="x" horiz-adv-x="983" d="M16 0l383 571l-383 549h181l295 -432l301 432h176l-385 -553l385 -567h-176l-301 449l-295 -449h-181z" />
<glyph unicode="y" horiz-adv-x="1096" d="M20 1120h160l361 -893l379 893h159l-647 -1511h-160l177 428z" />
<glyph unicode="z" horiz-adv-x="872" d="M20 0v135l609 848h-588v137h770v-137l-602 -848h643v-135h-832z" />
<glyph unicode="{" horiz-adv-x="721" d="M80 629q164 40 164 172v432q0 157 78 222q71 61 233 61q-164 -52 -164 -228v-420q0 -201 -182 -239q182 -33 182 -217v-441q0 -146 79 -194q32 -20 85 -37l-41 -2q-113 -5 -195 56q-75 57 -75 177v490q0 129 -164 168z" />
<glyph unicode="|" horiz-adv-x="1376" d="M625 0v1516h131v-1516h-131z" />
<glyph unicode="}" horiz-adv-x="721" d="M72 -260q54 21 88 42q76 47 76 189v441q0 186 184 217q-184 38 -184 243v416q0 182 -164 228l45 2q108 5 174 -42q94 -69 94 -243v-428q0 -82 61 -126q29 -22 55 -32l48 -18q-64 -10 -112 -56q-52 -50 -52 -112v-490q0 -231 -313 -231z" />
<glyph unicode="~" horiz-adv-x="1239" d="M100 537l51 73q67 95 151 133q47 21 106 21q53 0 101 -15q26 -8 52 -18q19 -10 62 -29l114 -50q38 -16 94 -23q51 0 93 28q49 32 70 61l59 83l88 -96q-104 -181 -215 -221q-40 -15 -86 -15q-105 0 -270 99q-82 48 -154 48q-135 0 -228 -180z" />
<glyph unicode="&#xa1;" horiz-adv-x="604" d="M227 -391v1122h154v-1122h-154zM227 864v256h154v-256h-154z" />
<glyph unicode="&#xa2;" d="M92 788q0 240 206 383q99 69 234 84v189h136v-189q177 -19 292 -158q54 -66 84 -149h-172q-80 160 -284 160q-149 0 -246.5 -98.5t-97.5 -245.5q12 -138 111.5 -224.5t228.5 -86.5q172 0 284 143h164q-45 -117 -150 -199q-114 -90 -214 -90v-178h-136v178 q-104 12 -181 53q-160 85 -227 257q-32 82 -32 171z" />
<glyph unicode="&#xa3;" d="M37 709v139h147q-41 91 -41 180q0 194 135 347q145 165 365 165q132 0 251 -66.5t186 -186.5q45 -81 57 -179h-146q-29 129 -123.5 207t-224.5 78q-158 0 -254 -103t-96 -250q0 -103 55 -192h588v-139h-440q147 -153 147 -332q0 -121 -68 -242l68 -2q185 -6 307 70 q111 69 111 254v26q0 38 -4 66h135q16 -96 16 -133q0 -249 -212 -362q-101 -54 -220 -54h-655v135h287q79 122 79 238q0 191 -194 336h-256z" />
<glyph unicode="&#xa4;" d="M47 616q0 144 105 308l-89 88l109 108l88 -88q67 60 189 88q56 13 114 13q88 0 172 -26q81 -25 142 -75l92 92l102 -112l-88 -88q100 -156 100 -316q0 -158 -100 -297l88 -88l-106 -106l-88 88q-163 -105 -318 -105q-162 0 -299 105l-92 -88l-105 106l89 88 q-73 110 -97 227q-8 39 -8 78zM201 621q0 -205 175 -315q84 -54 191 -54q224 0 324 194q45 87 45 179q0 85 -48 174q-101 188 -317 188q-182 0 -279 -123q-48 -61 -69.5 -120.5t-21.5 -122.5z" />
<glyph unicode="&#xa5;" d="M0 1516h164l444 -852l432 852h168l-297 -576h201v-129h-268l-101 -199h357v-125h-416v-487h-152v487h-423v125h362l-102 199h-273v129h203z" />
<glyph unicode="&#xa6;" horiz-adv-x="793" d="M625 0v1516h131v-1516h-131z" />
<glyph unicode="&#xa7;" horiz-adv-x="1260" d="M176 705q0 166 184 303q-88 88 -88 204q0 85 47.5 162t123.5 120q81 46 182 46q67 0 134 -23q135 -46 197 -154q31 -56 31 -120h-139q0 90 -118 135q-52 19 -105 19q-111 0 -169 -79q-27 -36 -32 -89q0 -128 135 -197l338 -172q120 -61 164 -165q22 -53 22 -107 q0 -153 -159 -285q100 -84 100 -231q0 -190 -166 -297q-86 -56 -182 -56q-282 0 -402 205q-59 101 -59 211h145q0 -74 45 -141q90 -133 242 -133q126 0 200 101q34 47 34 101q0 58 -33 110q-30 45 -88 75l-424 221q-81 42 -119 97q-41 59 -41 139zM328 696q0 -38 39 -76 t112 -75l340 -172q117 84 117 198q0 115 -180 205l-102 51l-205 109q-121 -89 -121 -240z" />
<glyph unicode="&#xa8;" horiz-adv-x="756" d="M152 1255v261h151v-261h-151zM453 1255v261h151v-261h-151z" />
<glyph unicode="&#xa9;" horiz-adv-x="1528" d="M-16 760q0 202 103 381q101 176 275 284q185 115 377 115q348 0 574 -224q104 -104 164 -235q66 -146 71 -276l2 -51q5 -134 -54 -287q-88 -225 -280.5 -358.5t-431.5 -133.5q-176 0 -326 65q-299 129 -418 433q-56 142 -56 287zM80 760q0 -182 88 -339t242 -253 q161 -100 366 -100q287 0 487 211q193 203 193 469q0 187 -93 347t-255.5 256.5t-351.5 96.5q-184 0 -342 -97q-154 -94 -245 -258q-89 -160 -89 -333zM369 788q0 169 114 299t310 130q195 0 302 -133q53 -66 68 -164h-110q-14 67 -55 114q-74 86 -205 86q-178 0 -265 -152 q-45 -78 -45 -192q0 -239 164 -328q73 -40 154 -40q137 0 210 97q35 47 46 111h110q-13 -130 -115 -215q-108 -90 -255 -90q-124 0 -225 65t-153 178q-50 108 -50 234z" />
<glyph unicode="&#xaa;" horiz-adv-x="756" d="M63 668v88h633v-88h-633zM63 1247q11 118 97.5 205.5t212.5 87.5q156 0 231 -108v96h92v-600h-92v92h-4q-69 -105 -227 -105q-184 0 -271 170q-39 74 -39 162zM156 1243q0 -101 62 -168q65 -71 163 -71q64 0 115 32q108 68 108 193q0 96 -67.5 159.5t-163.5 63.5 q-77 0 -147 -66t-70 -143z" />
<glyph unicode="&#xab;" horiz-adv-x="872" d="M80 616l235 408l121 -63l-200 -345l196 -344l-117 -63zM436 616l232 408l120 -63l-192 -340l192 -349l-120 -63z" />
<glyph unicode="&#xac;" horiz-adv-x="1239" d="M113 739v160h1032v-563h-164v403h-868z" />
<glyph unicode="&#xad;" horiz-adv-x="680" d="M63 549v135h558v-135h-558z" />
<glyph unicode="&#xae;" horiz-adv-x="1528" d="M-20 768q0 315 230 539q106 103 249 165q157 68 297 68q343 0 567 -235q103 -108 162 -248q63 -150 63 -281q0 -319 -217 -557q-224 -244 -530 -244q-387 0 -612 246q-209 227 -209 547zM80 776q0 -293 202 -503t490 -210q13 5 29 5q171 0 331 105q150 99 236 265 q84 163 84 346q0 111 -55 244q-81 196 -256 308q-171 108 -385 108q-188 0 -343 -91.5t-244 -254t-89 -322.5zM475 319v877h406q137 0 205.5 -66.5t68.5 -160.5q0 -244 -262 -244l262 -406h-123l-256 406h-196v-406h-105zM580 809h276q128 0 174 57q31 38 31 103 q0 147 -225 147h-256v-307z" />
<glyph unicode="&#xaf;" horiz-adv-x="1992" />
<glyph unicode="&#xb0;" horiz-adv-x="1992" />
<glyph unicode="&#xb1;" horiz-adv-x="1239" d="M104 0v156h1037v-156h-1037zM104 647v158h441v332h155v-332h441v-158h-441v-336h-155v336h-441z" />
<glyph unicode="&#xb2;" horiz-adv-x="680" d="M25 608v84l432 379q88 77 88 176q0 110 -91 172q-43 29 -89 29q-134 0 -194 -94q-32 -51 -32 -129h-106q0 143 89 224q86 79 230 79q169 0 261 -136q42 -64 42 -145q0 -137 -131 -252l-344 -303h467v-84h-622z" />
<glyph unicode="&#xb3;" horiz-adv-x="680" d="M25 897h100q0 -98 67 -158q64 -59 140 -59q124 0 190 99q31 46 31 102q0 130 -131 182q-63 24 -146 24v80q220 0 220 142q0 58 -50 98q-47 37 -106 37q-118 0 -152 -152h-92q0 110 75 176q72 64 169 64q95 0 173 -63q83 -67 83 -160q0 -118 -109 -176q168 -85 168 -248 q0 -119 -95.5 -206t-215.5 -87q-118 0 -217 86q-102 88 -102 219z" />
<glyph unicode="&#xb4;" horiz-adv-x="768" d="M152 1372l397 240l72 -119l-398 -233z" />
<glyph unicode="&#xb6;" horiz-adv-x="1155" d="M84 1128q0 222 186 333q92 55 222 55h516v-1776h-152v1640h-231v-1640h-154v985q-107 0 -208 67q-82 55 -130.5 146t-48.5 190z" />
<glyph unicode="&#xb7;" horiz-adv-x="567" d="M129 516v272h291v-272h-291z" />
<glyph unicode="&#xb8;" horiz-adv-x="664" d="M152 -307l88 8q19 -66 84 -66q45 0 72.5 29.5t27.5 71.5q0 81 -100 92q-47 -6 -80 -43l-64 31l84 184h72l-47 -117l26 6l37 7q74 0 119 -47t45 -121q0 -79 -56.5 -132t-135.5 -53q-137 0 -172 150z" />
<glyph unicode="&#xb9;" horiz-adv-x="680" d="M201 1432v84h274v-908h-106v824h-168z" />
<glyph unicode="&#xba;" horiz-adv-x="756" d="M63 668v88h629v-88h-629zM68 1237q0 167 146 259q71 44 155 44q184 0 277 -155q42 -71 42 -146q0 -180 -150 -280q-72 -48 -157 -48l-2 3q-146 2 -230 99q-81 94 -81 224zM160 1237q0 -132 107 -202q48 -31 110 -31q130 0 191 114q28 53 28 115q0 95 -64.5 155t-158.5 60 q-96 0 -152 -61q-61 -66 -61 -150z" />
<glyph unicode="&#xbb;" horiz-adv-x="872" d="M80 276l196 340l-196 345l121 67l231 -412l-231 -407zM436 276l197 340l-197 345l119 67l233 -412l-233 -403z" />
<glyph unicode="&#xbc;" horiz-adv-x="1700" d="M209 1432v84h274v-908h-110v824h-164zM444 0l680 1516h131l-680 -1516h-131zM961 168v84l475 659h120v-659h93v-84h-93v-168h-108v168h-487zM1065 252h383v532z" />
<glyph unicode="&#xbd;" horiz-adv-x="1700" d="M197 1432v84h274v-908h-106v824h-168zM424 0l680 1516h133l-682 -1516h-131zM1036 0v84l375 332q150 133 150 231q0 86 -62 141q-60 52 -147 52q-95 0 -148 -66q-49 -61 -49 -158h-111q0 136 87.5 222t228.5 86q130 0 216 -73q91 -77 91 -204q0 -117 -85 -209 q-44 -47 -101 -98l-289 -256h473v-84h-629z" />
<glyph unicode="&#xbe;" horiz-adv-x="1700" d="M29 893h96q0 -123 105 -187q47 -30 106 -30q89 0 151 60.5t62 148.5q0 109 -77 153.5t-196 44.5v84q216 0 216 138q0 63 -46 103t-110 40q-62 0 -104 -50q-39 -46 -39 -110h-101q0 107 72.5 175.5t179.5 68.5q146 0 218 -115q34 -55 34 -117q0 -97 -109 -172 q73 -28 118.5 -96t45.5 -147q0 -127 -96 -212q-92 -81 -219 -81q-178 0 -266 152q-41 70 -41 149zM475 0l680 1516h133l-680 -1516h-133zM961 168v84l475 659h120v-659h93v-84h-93v-168h-108v168h-487zM1065 252h383v532z" />
<glyph unicode="&#xbf;" horiz-adv-x="1212" d="M129 25l2 22q0 97 63 189q39 57 136 150.5t135 152.5q55 88 55 192h152q0 -193 -113 -321q-87 -79 -235 -246q-43 -62 -43 -144q0 -170 162 -269q71 -44 153 -44q153 0 247 105q89 101 89 256h147q0 -221 -135 -361q-136 -143 -356 -143q-137 0 -251.5 74.5t-169.5 199.5 q-38 87 -38 187zM520 864v256h152v-256h-152z" />
<glyph unicode="&#xc0;" horiz-adv-x="1516" d="M25 0l651 1516h168l651 -1516h-164l-223 508h-700l-220 -508h-163zM465 647h588l-293 692zM516 1860l64 122l409 -219l-69 -121z" />
<glyph unicode="&#xc1;" horiz-adv-x="1516" d="M25 0l651 1516h168l651 -1516h-164l-223 508h-700l-220 -508h-163zM465 647h588l-293 692zM512 1776l397 239l72 -119l-397 -233z" />
<glyph unicode="&#xc2;" horiz-adv-x="1516" d="M25 0l651 1516h168l651 -1516h-164l-223 508h-700l-220 -508h-163zM367 1640l297 261h131l301 -261h-189l-176 154l-180 -154h-184zM465 647h588l-293 692z" />
<glyph unicode="&#xc3;" horiz-adv-x="1516" d="M25 0l651 1516h168l651 -1516h-164l-223 508h-700l-220 -508h-163zM440 1765q87 84 181 84q46 0 121 -37q79 -39 118 -43q61 8 117 52l59 -101q-92 -72 -172 -80q-73 8 -184 68q-30 16 -64 16q-55 0 -114 -59zM465 647h588l-293 692z" />
<glyph unicode="&#xc4;" horiz-adv-x="1516" d="M25 0l651 1516h168l651 -1516h-164l-223 508h-700l-220 -508h-163zM465 647h588l-293 692zM508 1628v260h151v-260h-151zM809 1628v260h152v-260h-152z" />
<glyph unicode="&#xc5;" horiz-adv-x="1516" d="M25 0l651 1516h168l651 -1516h-164l-223 508h-700l-220 -508h-163zM465 647h588l-293 692zM575 1829q0 66 51 123t126 57q112 0 170 -96q26 -44 26 -92q0 -80 -52.5 -136.5t-131.5 -56.5q-88 0 -138.5 56t-50.5 145zM647 1825q0 -52 33 -86.5t84 -34.5q50 0 79 37t29 88 q0 42 -32.5 71t-87.5 29q-93 0 -105 -104z" />
<glyph unicode="&#xc6;" horiz-adv-x="928" d="M152 1468h129q13 -36 69 -65q60 -31 119 -31q117 0 178 96h129q-19 -102 -114 -161q-91 -56 -201 -56q-109 0 -195 55q-93 60 -114 162z" />
<glyph unicode="&#xc7;" horiz-adv-x="1665" d="M88 756l4 92q6 142 88 285q108 189 305 299q194 108 414 108q117 0 263 -56q295 -113 411 -360h-168q-112 173 -323 237q-106 32 -183 32q-191 0 -354.5 -100.5t-245.5 -271.5q-55 -114 -55 -245q0 -303 189 -480q182 -171 439 -171q163 0 303 69q146 71 236 201h168 q-103 -195 -304 -309.5t-444 -114.5l-38 -92q18 14 67 21q89 0 134 -79q22 -38 22 -93q0 -80 -61 -135q-56 -50 -128 -50q-142 0 -176 150l92 8q18 -66 84 -66q42 0 71.5 27.5t29.5 69.5q0 40 -33 69q-31 26 -72 31q-46 -6 -75 -51l-64 39l76 160q-257 49 -438 212 q-102 91 -168 233q-74 158 -66 331z" />
<glyph unicode="&#xc8;" horiz-adv-x="1096" d="M156 0v1516h827v-140h-676v-545h654v-135h-654v-561h676v-135h-827zM340 1841l63 123l410 -219l-70 -121z" />
<glyph unicode="&#xc9;" horiz-adv-x="1096" d="M156 0v1516h827v-140h-676v-545h654v-135h-654v-561h676v-135h-827zM264 1759l398 240l71 -119l-397 -233z" />
<glyph unicode="&#xca;" horiz-adv-x="1096" d="M156 0v1516h827v-140h-676v-545h654v-135h-654v-561h676v-135h-827zM176 1636l297 260h131l301 -260h-188l-176 154l-181 -154h-184z" />
<glyph unicode="&#xcb;" horiz-adv-x="1096" d="M156 0v1516h827v-140h-676v-545h654v-135h-654v-561h676v-135h-827zM360 1647v260h152v-260h-152zM662 1647v260h151v-260h-151z" />
<glyph unicode="&#xcc;" horiz-adv-x="465" d="M-25 1868l64 123l410 -219l-70 -121zM156 0v1516h151v-1516h-151z" />
<glyph unicode="&#xcd;" horiz-adv-x="465" d="M-25 1757l398 240l71 -119l-397 -233zM156 0v1516h151v-1516h-151z" />
<glyph unicode="&#xce;" horiz-adv-x="465" d="M-137 1651l297 260h131l301 -260h-189l-176 153l-180 -153h-184zM156 0v1516h151v-1516h-151z" />
<glyph unicode="&#xcf;" horiz-adv-x="465" d="M0 1647v260h152v-260h-152zM156 0v1516h151v-1516h-151zM301 1647v260h152v-260h-152z" />
<glyph unicode="&#xd0;" horiz-adv-x="1784" d="M92 756q0 351 253 575q167 148 395 195q70 14 141 14q166 0 326 -60t278 -180q79 -81 127 -188h-176q-80 137 -237 213q-146 72 -314 72q-138 0 -268 -61q-233 -109 -330 -351q-47 -116 -47 -229q0 -279 211 -460q96 -83 211 -129q125 -50 223 -50q282 0 489 193 q107 100 146 253h-844v137h1028q-59 -465 -441 -643q-176 -82 -374 -82q-149 0 -301 63q-298 123 -431 417q-65 143 -65 301zM625 1878h129q13 -36 69 -65q60 -31 119 -31q117 0 178 96h129q-19 -102 -114 -161q-91 -56 -201 -56q-109 0 -195 55q-93 60 -114 162z" />
<glyph unicode="&#xd1;" horiz-adv-x="1516" d="M156 0v1516h204l848 -1256v1256h152v-1516h-152l-901 1331v-1331h-151zM449 1776q87 84 180 84q45 0 117 -34l59 -28q31 -15 63 -18q60 6 117 51l59 -100q-86 -71 -172 -80q-71 6 -184 67q-31 17 -63 17q-53 0 -115 -60z" />
<glyph unicode="&#xd2;" horiz-adv-x="1780" d="M92 772q0 198 110 377q105 173 280 279q183 112 403 112q338 0 571 -229q236 -233 236 -572q0 -211 -121 -395q-116 -177 -309 -276q-187 -97 -390 -97q-131 0 -283 63q-230 95 -363.5 293t-133.5 445zM244 780q0 -165 63 -299q110 -235 364 -321q113 -39 214 -39 q234 0 424 147q96 75 159 195q72 137 72 280q0 289 -201 476q-193 178 -450 178q-265 0 -455 -193.5t-190 -423.5zM668 1872l63 123l410 -219l-70 -121z" />
<glyph unicode="&#xd3;" horiz-adv-x="1780" d="M92 772q0 198 110 377q105 173 280 279q183 112 403 112q338 0 571 -229q236 -233 236 -572q0 -211 -121 -395q-116 -177 -309 -276q-187 -97 -390 -97q-131 0 -283 63q-230 95 -363.5 293t-133.5 445zM244 780q0 -165 63 -299q110 -235 364 -321q113 -39 214 -39 q234 0 424 147q96 75 159 195q72 137 72 280q0 289 -201 476q-193 178 -450 178q-265 0 -455 -193.5t-190 -423.5zM635 1776l397 239l72 -119l-397 -233z" />
<glyph unicode="&#xd4;" horiz-adv-x="1780" d="M92 772q0 198 110 377q105 173 280 279q183 112 403 112q338 0 571 -229q236 -233 236 -572q0 -211 -121 -395q-116 -177 -309 -276q-187 -97 -390 -97q-131 0 -283 63q-230 95 -363.5 293t-133.5 445zM244 780q0 -165 63 -299q110 -235 364 -321q113 -39 214 -39 q234 0 424 147q96 75 159 195q72 137 72 280q0 289 -201 476q-193 178 -450 178q-265 0 -455 -193.5t-190 -423.5zM512 1667l297 260h131l301 -260h-188l-176 154l-181 -154h-184z" />
<glyph unicode="&#xd5;" horiz-adv-x="1780" d="M92 772q0 198 110 377q105 173 280 279q183 112 403 112q338 0 571 -229q236 -233 236 -572q0 -211 -121 -395q-116 -177 -309 -276q-187 -97 -390 -97q-131 0 -283 63q-230 95 -363.5 293t-133.5 445zM244 780q0 -165 63 -299q110 -235 364 -321q113 -39 214 -39 q234 0 424 147q96 75 159 195q72 137 72 280q0 289 -201 476q-193 178 -450 178q-265 0 -455 -193.5t-190 -423.5zM580 1792q87 84 180 84q45 0 117 -34l59 -28q31 -15 63 -18q60 6 117 51l60 -100q-93 -72 -172 -80q-69 6 -185 68q-30 16 -63 16q-56 0 -115 -59z" />
<glyph unicode="&#xd6;" horiz-adv-x="1780" d="M92 772q0 198 110 377q105 173 280 279q183 112 403 112q338 0 571 -229q236 -233 236 -572q0 -211 -121 -395q-116 -177 -309 -276q-187 -97 -390 -97q-131 0 -283 63q-230 95 -363.5 293t-133.5 445zM244 780q0 -165 63 -299q110 -235 364 -321q113 -39 214 -39 q234 0 424 147q96 75 159 195q72 137 72 280q0 289 -201 476q-193 178 -450 178q-265 0 -455 -193.5t-190 -423.5zM643 1679v260h152v-260h-152zM944 1679v260h152v-260h-152z" />
<glyph unicode="&#xd7;" horiz-adv-x="1992" />
<glyph unicode="&#xd8;" horiz-adv-x="1776" d="M88 743q0 310 238 557q235 244 555 244q212 0 419 -117l193 256l106 -88l-184 -247q208 -183 261 -434q16 -76 16 -154q0 -326 -235 -555.5t-564 -229.5q-221 0 -422 117l-190 -260l-113 84l192 260q-135 118 -202 263q-70 150 -70 304zM244 748q0 -80 28.5 -172 t84.5 -174q37 -54 92 -109l763 1016q-164 92 -335 92q-170 0 -316 -92q-142 -89 -227 -241q-90 -160 -90 -320zM559 209q93 -45 183 -67q102 -25 169 -25q116 0 239 54q230 101 333 343q49 116 49 242q0 293 -209 473z" />
<glyph unicode="&#xd9;" horiz-adv-x="1339" d="M156 504v1012h151v-1004q0 -247 188 -350q90 -49 177 -49q213 0 314 196q50 98 50 236v971h152v-967q0 -364 -263 -509q-119 -65 -253 -65q-210 0 -356 138q-160 150 -160 391zM436 1876l64 123l409 -219l-69 -121z" />
<glyph unicode="&#xda;" horiz-adv-x="1339" d="M156 504v1012h151v-1004q0 -247 188 -350q90 -49 177 -49q213 0 314 196q50 98 50 236v971h152v-967q0 -364 -263 -509q-119 -65 -253 -65q-210 0 -356 138q-160 150 -160 391zM455 1784l397 239l72 -118l-398 -234z" />
<glyph unicode="&#xdb;" horiz-adv-x="1339" d="M156 504v1012h151v-1004q0 -247 188 -350q90 -49 177 -49q213 0 314 196q50 98 50 236v971h152v-967q0 -364 -263 -509q-119 -65 -253 -65q-210 0 -356 138q-160 150 -160 391zM299 1655l297 260h131l301 -260h-188l-176 153l-181 -153h-184z" />
<glyph unicode="&#xdc;" horiz-adv-x="1339" d="M156 504v1012h151v-1004q0 -247 188 -350q90 -49 177 -49q213 0 314 196q50 98 50 236v971h152v-967q0 -364 -263 -509q-119 -65 -253 -65q-210 0 -356 138q-160 150 -160 391zM440 1663v260h152v-260h-152zM741 1663v260h152v-260h-152z" />
<glyph unicode="&#xdd;" horiz-adv-x="465" d="M156 0v1516h151v-1516h-151zM156 1665v260h151v-260h-151z" />
<glyph unicode="&#xde;" horiz-adv-x="1020" d="M43 424h166q0 -85 45.5 -158.5t122.5 -109.5q73 -35 151 -35q118 0 206.5 86.5t88.5 204.5q0 94 -47 168q-46 71 -168 113l-244 83q-120 41 -195 120q-83 87 -75 234l1 18l1 23q3 80 40 151q70 135 229 192q75 26 151 26q246 0 367 -209q53 -92 53 -178v-20h-152 q-30 238 -264 260q-150 0 -231 -115q-35 -49 -41 -115q0 -140 89 -207q55 -42 220 -89q176 -51 260 -115q108 -82 148 -236q8 -61 8 -96q0 -170 -114 -301q-56 -64 -144 -105q-75 -35 -164 -42l-34 -89l64 13q74 0 119 -47t45 -121q0 -80 -56 -132.5t-137 -52.5 q-135 0 -172 150l88 8q18 -66 84 -66q42 0 71.5 28.5t29.5 72.5q0 81 -101 92q-46 -6 -80 -43l-63 31l74 164q-159 16 -246 75q-194 131 -194 369z" />
<glyph unicode="&#xdf;" d="M125 0v1053q0 132 49 244q17 39 43 77q114 166 336 166q229 0 354 -206q62 -102 62 -189q0 -263 -176 -352q167 -34 242 -201q40 -91 40 -215q0 -109 -66 -207q-131 -195 -362 -195q-260 0 -383 252v-227h-139zM276 416h97q0 -114 82 -209q71 -82 196 -82q107 0 184 76 q74 72 89 180q0 162 -106 245q-96 74 -263 74h-52q-23 0 -50 -4v144q362 0 362 293q0 122 -86 195q-81 69 -205 69q-146 0 -217 -168q-31 -74 -31 -162v-651z" />
<glyph unicode="&#xe0;" horiz-adv-x="1401" d="M84 553q0 167 83 306t230 217q138 73 287 73q304 0 440 -246v217h148v-1120h-148v213q-64 -116 -193 -180q-118 -58 -259 -58q-145 0 -288 76.5t-221.5 208.5t-78.5 293zM240 588q0 -281 221 -408q102 -59 211 -59q189 0 323 134q129 129 129 298q0 186 -124 310 q-136 136 -308 136q-258 0 -393 -224q-59 -97 -59 -187zM459 1477l63 122l410 -219l-70 -120z" />
<glyph unicode="&#xe1;" horiz-adv-x="1401" d="M84 553q0 167 83 306t230 217q138 73 287 73q304 0 440 -246v217h148v-1120h-148v213q-64 -116 -193 -180q-118 -58 -259 -58q-145 0 -288 76.5t-221.5 208.5t-78.5 293zM240 588q0 -281 221 -408q102 -59 211 -59q189 0 323 134q129 129 129 298q0 186 -124 310 q-136 136 -308 136q-258 0 -393 -224q-59 -97 -59 -187zM459 1376l397 240l72 -119l-398 -233z" />
<glyph unicode="&#xe2;" horiz-adv-x="1401" d="M84 553q0 167 83 306t230 217q138 73 287 73q304 0 440 -246v217h148v-1120h-148v213q-64 -116 -193 -180q-118 -58 -259 -58q-145 0 -288 76.5t-221.5 208.5t-78.5 293zM240 588q0 -281 221 -408q102 -59 211 -59q189 0 323 134q129 129 129 298q0 186 -124 310 q-136 136 -308 136q-258 0 -393 -224q-59 -97 -59 -187zM340 1255l297 261h131l301 -261h-188l-176 154l-181 -154h-184z" />
<glyph unicode="&#xe3;" horiz-adv-x="1401" d="M84 553q0 167 83 306t230 217q138 73 287 73q304 0 440 -246v217h148v-1120h-148v213q-64 -116 -193 -180q-118 -58 -259 -58q-145 0 -288 76.5t-221.5 208.5t-78.5 293zM240 588q0 -281 221 -408q102 -59 211 -59q189 0 323 134q129 129 129 298q0 186 -124 310 q-136 136 -308 136q-258 0 -393 -224q-59 -97 -59 -187zM403 1380q87 84 181 84q46 0 121 -37q79 -39 118 -43q61 8 117 52l59 -101q-92 -72 -172 -80q-74 8 -184 68q-29 16 -63 16q-56 0 -115 -59z" />
<glyph unicode="&#xe4;" horiz-adv-x="1401" d="M84 553q0 167 83 306t230 217q138 73 287 73q304 0 440 -246v217h148v-1120h-148v213q-64 -116 -193 -180q-118 -58 -259 -58q-145 0 -288 76.5t-221.5 208.5t-78.5 293zM240 588q0 -281 221 -408q102 -59 211 -59q189 0 323 134q129 129 129 298q0 186 -124 310 q-136 136 -308 136q-258 0 -393 -224q-59 -97 -59 -187zM475 1255v261h152v-261h-152zM776 1255v261h152v-261h-152z" />
<glyph unicode="&#xe5;" horiz-adv-x="1401" d="M84 553q0 167 83 306t230 217q138 73 287 73q304 0 440 -246v217h148v-1120h-148v213q-64 -116 -193 -180q-118 -58 -259 -58q-145 0 -288 76.5t-221.5 208.5t-78.5 293zM240 588q0 -281 221 -408q102 -59 211 -59q189 0 323 134q129 129 129 298q0 186 -124 310 q-136 136 -308 136q-258 0 -393 -224q-59 -97 -59 -187zM512 1456q0 66 51 123t125 57q113 0 171 -96q26 -44 26 -92q0 -79 -53 -136t-132 -57q-89 0 -140 59q-48 55 -48 142zM584 1452q0 -51 33 -86t83 -35t81 38q28 36 28 87q0 42 -33.5 71t-87.5 29q-92 0 -104 -104z" />
<glyph unicode="&#xe6;" horiz-adv-x="2367" d="M84 553l4 27q0 132 76 273q162 300 512 300q282 0 457 -209v209h143v-209q170 211 448 211q113 0 224 -51q215 -99 303 -336q45 -121 45 -256h-1016q32 -241 245 -341q96 -46 204 -46q105 0 217 71q105 67 153 177h158q-60 -177 -205 -281q-156 -112 -319 -112 q-267 0 -457 204v-204h-143v204q-106 -112 -205 -157q-103 -47 -244 -47q-248 0 -424 174.5t-176 398.5zM240 600q-5 -113 52 -232q53 -113 154.5 -178t225.5 -65l4 3l4 1q204 0 334 138q89 94 115 228q8 41 8 89q0 64 -33 145q-67 164 -229 239q-87 40 -199 40 q-119 0 -224 -63q-96 -58 -149 -149q-59 -102 -63 -196zM1288 647h844q-39 231 -234 319q-93 42 -182 42q-214 0 -348 -166q-63 -78 -80 -195z" />
<glyph unicode="&#xe7;" horiz-adv-x="1323" d="M88 563q0 254 188 420q85 75 191 117q113 45 213 45q288 0 472 -204q60 -68 99 -157h-176q-100 175 -307 213q-39 7 -84 7q-129 0 -244 -75q-200 -131 -200 -380q0 -250 222 -369q103 -55 226 -55q163 0 282 88q65 48 109 115h164q-70 -191 -297 -300q-114 -55 -244 -55 h-19q-10 0 -24 2l-34 -92q15 5 63 17q65 0 112 -49q44 -46 44 -140q0 -73 -55.5 -118.5t-129.5 -45.5q-66 0 -115.5 40.5t-60.5 105.5l88 10q38 -68 93 -68q38 0 67 29.5t29 67.5q0 39 -34 67q-30 25 -71 29q-46 -6 -80 -43l-59 35l72 164q-152 33 -262 107 q-238 160 -238 472z" />
<glyph unicode="&#xe8;" horiz-adv-x="1331" d="M88 567q0 258 186 425q126 113 290 147q52 10 104 10q227 0 397 -154q186 -170 186 -458v-29h-1011q0 -83 48 -168q81 -143 240 -195q71 -24 136 -24q121 0 237 68q124 72 164 180h156q-35 -98 -98 -175q-118 -145 -299 -195q-87 -24 -169 -24q-137 0 -277 79.5 t-216 216.5q-74 133 -74 296zM240 643h864q-40 208 -233 311q-94 50 -199 50q-122 0 -222 -57q-103 -58 -158 -164q-45 -85 -52 -140zM387 1497l64 123l409 -219l-69 -121z" />
<glyph unicode="&#xe9;" horiz-adv-x="1331" d="M88 567q0 258 186 425q126 113 290 147q52 10 104 10q227 0 397 -154q186 -170 186 -458v-29h-1011q0 -83 48 -168q81 -143 240 -195q71 -24 136 -24q121 0 237 68q124 72 164 180h156q-35 -98 -98 -175q-118 -145 -299 -195q-87 -24 -169 -24q-137 0 -277 79.5 t-216 216.5q-74 133 -74 296zM240 643h864q-40 208 -233 311q-94 50 -199 50q-122 0 -222 -57q-103 -58 -158 -164q-45 -85 -52 -140zM412 1352l397 239l72 -118l-398 -234z" />
<glyph unicode="&#xea;" horiz-adv-x="1331" d="M88 567q0 258 186 425q126 113 290 147q52 10 104 10q227 0 397 -154q186 -170 186 -458v-29h-1011q0 -83 48 -168q81 -143 240 -195q71 -24 136 -24q121 0 237 68q124 72 164 180h156q-35 -98 -98 -175q-118 -145 -299 -195q-87 -24 -169 -24q-137 0 -277 79.5 t-216 216.5q-74 133 -74 296zM240 643h864q-40 208 -233 311q-94 50 -199 50q-122 0 -222 -57q-103 -58 -158 -164q-45 -85 -52 -140zM299 1227l297 260h131l301 -260h-188l-176 153l-181 -153h-184z" />
<glyph unicode="&#xeb;" horiz-adv-x="1331" d="M88 567q0 258 186 425q126 113 290 147q52 10 104 10q227 0 397 -154q186 -170 186 -458v-29h-1011q0 -83 48 -168q81 -143 240 -195q71 -24 136 -24q121 0 237 68q124 72 164 180h156q-35 -98 -98 -175q-118 -145 -299 -195q-87 -24 -169 -24q-137 0 -277 79.5 t-216 216.5q-74 133 -74 296zM240 643h864q-40 208 -233 311q-94 50 -199 50q-122 0 -222 -57q-103 -58 -158 -164q-45 -85 -52 -140zM440 1239v260h152v-260h-152zM741 1239v260h152v-260h-152z" />
<glyph unicode="&#xec;" horiz-adv-x="408" d="M-63 1481l63 123l410 -220l-70 -120zM129 0v1120h152v-1120h-152z" />
<glyph unicode="&#xed;" horiz-adv-x="408" d="M-41 1389l397 239l72 -119l-397 -233zM129 0v1120h152v-1120h-152z" />
<glyph unicode="&#xee;" horiz-adv-x="408" d="M-156 1239l297 260h131l301 -260h-188l-176 154l-180 -154h-185zM129 0v1120h152v-1120h-152z" />
<glyph unicode="&#xef;" horiz-adv-x="408" d="M-12 1276v260h151v-260h-151zM129 0v1120h152v-1120h-152zM289 1276v260h151v-260h-151z" />
<glyph unicode="&#xf0;" horiz-adv-x="1380" d="M88 563q0 164 76 297q77 138 218 215q135 74 261 74q210 0 357 -117q71 -57 108 -133v225h143v-1028q0 -165 -77 -286q-152 -238 -474 -238q-321 0 -490 230q-56 76 -81 173h147q71 -170 249 -235q81 -29 167 -29q244 0 359 180q57 89 57 209v123q-133 -248 -436 -248 q-173 0 -315.5 91.5t-216.5 248.5q-52 110 -52 248zM240 592q0 -210 126 -342q123 -129 302 -129q108 0 208 55t161 146q71 105 71 258q0 164 -129 288q-137 131 -324 131q-118 0 -207 -54q-144 -88 -190 -255q-18 -66 -18 -98zM364 1509h129q16 -37 70 -65q59 -31 119 -31 q117 0 178 96h129q-19 -102 -114 -161q-91 -56 -201 -56q-109 0 -195 55q-93 60 -115 162z" />
<glyph unicode="&#xf1;" horiz-adv-x="1247" d="M129 0v1120h143v-168q72 120 215 169q70 24 142 24q148 0 270.5 -80t180.5 -215q40 -96 40 -217v-633h-147v633q0 228 -180 321q-81 41 -172 41q-196 0 -292 -156q-48 -79 -48 -188v-651h-152zM336 1376q84 84 180 84q46 0 121 -37q81 -39 119 -43q57 6 116 52l60 -101 q-93 -72 -172 -80q-69 6 -185 68q-30 16 -63 16q-56 0 -115 -59z" />
<glyph unicode="&#xf2;" horiz-adv-x="1339" d="M88 580q0 224 172 394.5t432 170.5q133 0 264 -77q121 -72 204 -187q93 -129 100 -269l1 -19l1 -24q5 -114 -46 -231q-96 -223 -319 -317q-107 -46 -225 -46q-227 0 -398 157q-186 171 -186 448zM236 571q0 -272 220 -393q111 -61 220 -61q230 0 363 209q65 103 65 245 q0 110 -58.5 207.5t-157.5 157.5q-102 63 -212 63q-112 0 -213.5 -58.5t-162.5 -153.5q-64 -99 -64 -216zM436 1460l64 123l409 -219l-69 -121z" />
<glyph unicode="&#xf3;" horiz-adv-x="1339" d="M88 580q0 224 172 394.5t432 170.5q133 0 264 -77q121 -72 204 -187q93 -129 100 -269l1 -19l1 -24q5 -114 -46 -231q-96 -223 -319 -317q-107 -46 -225 -46q-227 0 -398 157q-186 171 -186 448zM236 571q0 -272 220 -393q111 -61 220 -61q230 0 363 209q65 103 65 245 q0 110 -58.5 207.5t-157.5 157.5q-102 63 -212 63q-112 0 -213.5 -58.5t-162.5 -153.5q-64 -99 -64 -216zM444 1352l398 239l71 -118l-397 -234z" />
<glyph unicode="&#xf4;" horiz-adv-x="1339" d="M88 580q0 224 172 394.5t432 170.5q133 0 264 -77q121 -72 204 -187q93 -129 100 -269l1 -19l1 -24q5 -114 -46 -231q-96 -223 -319 -317q-107 -46 -225 -46q-227 0 -398 157q-186 171 -186 448zM236 571q0 -272 220 -393q111 -61 220 -61q230 0 363 209q65 103 65 245 q0 110 -58.5 207.5t-157.5 157.5q-102 63 -212 63q-112 0 -213.5 -58.5t-162.5 -153.5q-64 -99 -64 -216zM283 1231l297 260h131l301 -260h-189l-176 153l-180 -153h-184z" />
<glyph unicode="&#xf5;" horiz-adv-x="1339" d="M88 580q0 224 172 394.5t432 170.5q133 0 264 -77q121 -72 204 -187q93 -129 100 -269l1 -19l1 -24q5 -114 -46 -231q-96 -223 -319 -317q-107 -46 -225 -46q-227 0 -398 157q-186 171 -186 448zM236 571q0 -272 220 -393q111 -61 220 -61q230 0 363 209q65 103 65 245 q0 110 -58.5 207.5t-157.5 157.5q-102 63 -212 63q-112 0 -213.5 -58.5t-162.5 -153.5q-64 -99 -64 -216zM348 1339q87 84 180 84q46 0 121 -37q80 -39 119 -43q61 8 117 52l59 -101q-92 -72 -172 -80q-69 7 -184 68q-30 16 -64 16q-55 0 -114 -59z" />
<glyph unicode="&#xf6;" horiz-adv-x="1339" d="M88 580q0 224 172 394.5t432 170.5q133 0 264 -77q121 -72 204 -187q93 -129 100 -269l1 -19l1 -24q5 -114 -46 -231q-96 -223 -319 -317q-107 -46 -225 -46q-227 0 -398 157q-186 171 -186 448zM236 571q0 -272 220 -393q111 -61 220 -61q230 0 363 209q65 103 65 245 q0 110 -58.5 207.5t-157.5 157.5q-102 63 -212 63q-112 0 -213.5 -58.5t-162.5 -153.5q-64 -99 -64 -216zM455 1223v260h151v-260h-151zM756 1223v260h151v-260h-151z" />
<glyph unicode="&#xf7;" horiz-adv-x="1992" />
<glyph unicode="&#xf8;" horiz-adv-x="1335" d="M76 559q0 110 50 224q71 163 216 265q149 105 322 105q164 0 309 -92l114 156l113 -80l-121 -160q164 -164 164 -422q0 -334 -276 -501q-131 -79 -291 -79q-157 0 -299 80l-113 -147l-104 80l108 143q-192 192 -192 428zM227 549q0 -75 35 -158q32 -76 94 -139l529 692 q-105 64 -217 64q-134 0 -244 -83q-104 -78 -158 -206q-39 -92 -39 -170zM465 168q91 -46 207 -51q77 -4 168 40q120 57 190 171t70 247q0 172 -109 281z" />
<glyph unicode="&#xf9;" horiz-adv-x="1243" d="M129 453v667h152v-645q0 -226 172 -318q80 -44 163 -44q201 0 300 181q49 89 49 214v612h151v-1120h-139v176q-52 -100 -150.5 -152.5t-218.5 -52.5q-270 0 -409 222q-70 110 -70 260zM387 1473l64 122l409 -219l-69 -121z" />
<glyph unicode="&#xfa;" horiz-adv-x="1243" d="M129 453v667h152v-645q0 -226 172 -318q80 -44 163 -44q201 0 300 181q49 89 49 214v612h151v-1120h-139v176q-52 -100 -150.5 -152.5t-218.5 -52.5q-270 0 -409 222q-70 110 -70 260zM379 1384l397 240l72 -119l-397 -233z" />
<glyph unicode="&#xfb;" horiz-adv-x="1243" d="M129 453v667h152v-645q0 -226 172 -318q80 -44 163 -44q201 0 300 181q49 89 49 214v612h151v-1120h-139v176q-52 -100 -150.5 -152.5t-218.5 -52.5q-270 0 -409 222q-70 110 -70 260zM240 1255l297 261h131l301 -261h-189l-176 154l-180 -154h-184z" />
<glyph unicode="&#xfc;" horiz-adv-x="1243" d="M129 453v667h152v-645q0 -226 172 -318q80 -44 163 -44q201 0 300 181q49 89 49 214v612h151v-1120h-139v176q-52 -100 -150.5 -152.5t-218.5 -52.5q-270 0 -409 222q-70 110 -70 260zM387 1255v261h152v-261h-152zM688 1255v261h152v-261h-152z" />
<glyph unicode="&#xfd;" horiz-adv-x="408" d="M129 0v1120h152v-1120h-152z" />
<glyph unicode="&#xfe;" horiz-adv-x="797" d="M37 328l151 4q0 -94 66 -155q67 -64 141 -64t136 61q57 56 57 133q0 155 -185 205q-126 34 -219 97q-99 66 -104 184l-2 45q-3 69 29 133q56 111 177 154q57 20 107 20q122 0 215 -73q72 -58 99 -159q8 -33 8 -69h-154q0 79 -49.5 117t-118.5 38q-58 0 -113 -40t-55 -115 l13 -56q13 -56 104 -92l181 -71q94 -37 155 -100q70 -75 63 -191l-4 -62q-8 -120 -93 -198q-102 -94 -207 -94l-39 -91l26 6l37 7q74 0 119 -47t45 -121q0 -79 -56.5 -132t-135.5 -53q-137 0 -172 150l88 8q19 -66 84 -66q45 0 72.5 29.5t27.5 71.5q0 81 -100 92 q-47 -6 -80 -43l-64 31l76 159q-88 0 -157 40q-169 98 -169 307z" />
<glyph unicode="&#xff;" horiz-adv-x="1096" d="M20 1120h160l361 -893l379 893h159l-647 -1511h-160l177 428zM328 1255v261h151v-261h-151zM629 1255v261h151v-261h-151z" />
<glyph unicode="&#x152;" horiz-adv-x="2443" d="M94 760l1 22l1 27q5 131 65 267q76 173 218.5 291t325.5 160q76 17 155 17q295 0 498 -141q99 -70 178 -174v287h801v-136h-649v-549h624v-135h-624v-557h645v-139h-801v293q-104 -133 -263 -223q-169 -95 -362 -95q-178 0 -336 67q-301 128 -419 421q-64 158 -58 297z M244 760q0 -253 180 -440q189 -199 483 -199q163 0 318 96q146 90 228.5 237t82.5 318q0 108 -50 229q-100 241 -341 346q-127 54 -277 54q-131 0 -254 -59q-235 -113 -327 -352q-43 -111 -43 -230z" />
<glyph unicode="&#x153;" horiz-adv-x="2329" d="M96 563q0 147 68 277.5t189 212.5q141 96 298 96q185 0 336 -99q124 -81 201 -202q130 242 408 288q54 9 108 9q104 0 211 -47q212 -93 301 -327q45 -118 45 -267h-1001q18 -183 148 -286q121 -97 280 -97q170 0 295 115q59 55 90 129h155q-88 -255 -327 -347 q-112 -43 -226 -43q-207 0 -366 140q-76 67 -125 161q-85 -137 -216 -217q-138 -84 -292 -84q-172 0 -315 95q-124 82 -194.5 213.5t-70.5 279.5zM248 545q0 -102 57 -205.5t157.5 -161t217.5 -57.5q258 0 371 235q53 110 53 244q0 57 -37 143q-64 150 -221 221 q-79 35 -174 35q-188 0 -312 -141q-112 -127 -112 -313zM1260 641h847q-35 208 -228 309q-94 49 -179 49q-225 0 -352 -166q-62 -81 -88 -192z" />
<glyph unicode="&#x2c6;" horiz-adv-x="1028" d="M152 1255l297 261h131l301 -261h-189l-176 154l-180 -154h-184z" />
<glyph unicode="&#x2dc;" horiz-adv-x="899" d="M152 1380q84 84 180 84q46 0 121 -37q79 -39 118 -43q61 8 117 52l60 -101q-92 -70 -173 -80q-74 8 -184 68q-29 16 -63 16q-56 0 -115 -59z" />
<glyph unicode="&#x2000;" horiz-adv-x="1011" />
<glyph unicode="&#x2001;" horiz-adv-x="2023" />
<glyph unicode="&#x2002;" horiz-adv-x="1011" />
<glyph unicode="&#x2003;" horiz-adv-x="2023" />
<glyph unicode="&#x2004;" horiz-adv-x="674" />
<glyph unicode="&#x2005;" horiz-adv-x="505" />
<glyph unicode="&#x2006;" horiz-adv-x="337" />
<glyph unicode="&#x2007;" horiz-adv-x="337" />
<glyph unicode="&#x2008;" horiz-adv-x="252" />
<glyph unicode="&#x2009;" horiz-adv-x="404" />
<glyph unicode="&#x200a;" horiz-adv-x="112" />
<glyph unicode="&#x2010;" horiz-adv-x="680" d="M63 549v135h558v-135h-558z" />
<glyph unicode="&#x2011;" horiz-adv-x="680" d="M63 549v135h558v-135h-558z" />
<glyph unicode="&#x2012;" horiz-adv-x="680" d="M63 549v135h558v-135h-558z" />
<glyph unicode="&#x2013;" horiz-adv-x="1024" d="M0 549v139h1028v-139h-1028z" />
<glyph unicode="&#x2014;" horiz-adv-x="2048" d="M0 549v135h2048v-135h-2048z" />
<glyph unicode="&#x2018;" horiz-adv-x="721" d="M201 1516h155l176 -396h-151z" />
<glyph unicode="&#x2019;" horiz-adv-x="721" d="M188 1120l181 396h151l-180 -396h-152z" />
<glyph unicode="&#x201a;" horiz-adv-x="1992" />
<glyph unicode="&#x201c;" horiz-adv-x="1028" d="M197 1516h151l180 -396h-151zM500 1516h151l180 -396h-151z" />
<glyph unicode="&#x201d;" horiz-adv-x="991" d="M180 1120l172 396h152l-180 -396h-144zM471 1120l184 396h150l-180 -396h-154z" />
<glyph unicode="&#x201e;" horiz-adv-x="1028" d="M143 0v272h273v-315q0 -134 -125 -206q-63 -36 -148 -36v133q60 18 92 46q29 25 29 106h-121zM567 0v272h273v-313q0 -140 -125 -213q-62 -35 -144 -35v142q66 11 92 46q25 32 25 101h-121z" />
<glyph unicode="&#x2022;" horiz-adv-x="1239" d="M256 633q0 214 190 318q88 48 195 48q157 0 263 -100q79 -75 101 -189q7 -37 7 -81q0 -231 -190 -336q-89 -49 -193 -49q-234 0 -328 193q-45 91 -45 196z" />
<glyph unicode="&#x2026;" horiz-adv-x="2048" d="M268 0v260h152v-260h-152zM948 0v260h152v-260h-152zM1632 0v260h152v-260h-152z" />
<glyph unicode="&#x202f;" horiz-adv-x="404" />
<glyph unicode="&#x2039;" horiz-adv-x="516" d="M84 616l231 408l117 -63l-192 -345l192 -344l-117 -63z" />
<glyph unicode="&#x203a;" horiz-adv-x="516" d="M84 272l192 344l-192 345l121 63l227 -408l-231 -407z" />
<glyph unicode="&#x205f;" horiz-adv-x="505" />
<glyph unicode="&#x2122;" horiz-adv-x="2048" d="M129 1393v123h698v-123h-272v-742h-152v742h-274zM981 651v865h219l248 -609l256 609h219v-865h-135v742l-299 -742h-80l-293 742v-742h-135z" />
<glyph unicode="&#xe000;" horiz-adv-x="1120" d="M0 0v1120h1120v-1120h-1120z" />
</font>
</defs>
</svg>
